<svg id="Capa_1" enable-background="new 0 0 512 512" height="512" viewBox="0 0 512 512" width="512" xmlns="http://www.w3.org/2000/svg"><g><g><path d="m154.098 57.905 27.785-14.331c2.465-1.271 5.355-1.429 7.943-.433l213.304 82.072-123.049 63.467-126.777-125.596c-1.563-1.548-1.161-4.17.794-5.179z" fill="#f1f4f6"/></g><g><path d="m327.83 394.732 27.785-14.331c2.465-1.271 4.268-3.535 4.957-6.221l56.785-221.381-123.049 63.467 28.841 176.111c.356 2.171 2.726 3.363 4.681 2.355z" fill="#f1f4f6"/></g><g><path d="m189.826 43.141c-2.588-.996-5.478-.838-7.943.433l-27.785 14.331c-.059.031-.112.067-.169.101 2.42-1.178 5.22-1.309 7.738-.341l213.304 82.072 28.158-14.524z" fill="#dfeaef"/></g><g><path d="m389.199 167.322-56.785 221.381c-.67 2.613-2.401 4.819-4.764 6.107.06-.027.121-.049.18-.079l27.785-14.331c2.465-1.271 4.268-3.535 4.957-6.221l56.785-221.381z" fill="#dfeaef"/></g><g><path d="m136.385 213.971c-2.211-.931-4.722-.834-6.854.266l-23.258 11.996c-1.96 1.011-2.358 3.643-.785 5.188l43.228 42.478 9.551 59.848c.348 2.178 2.723 3.379 4.683 2.368l23.258-11.996c2.132-1.1 3.667-3.089 4.19-5.431l16.737-74.921z" fill="#f1f4f6"/></g><g><path d="m136.385 213.971c-2.211-.931-4.722-.834-6.854.266l-23.258 11.996c-.106.055-.205.116-.301.18 2.054-.938 4.409-.989 6.501-.108l70.749 29.797-16.737 74.921c-.495 2.215-1.902 4.105-3.856 5.234.108-.042.215-.087.321-.142l23.258-11.996c2.132-1.1 3.667-3.089 4.19-5.431l16.737-74.921z" fill="#dfeaef"/></g><g><path d="m494.282 85.969-38.051 1.5c-7.631.301-15.102 2.271-21.889 5.771l-166.912 86.091c-29.487 15.209-57.065 33.861-82.158 55.567l-30.061 26.003c-7.003 6.058-1.134 17.435 7.861 15.241l38.614-9.419c32.233-7.863 63.419-19.521 92.905-34.729l166.912-86.092c6.787-3.501 12.724-8.446 17.392-14.489l23.281-30.134c4.936-6.387.169-15.628-7.894-15.31z" fill="#f1f4f6"/></g><g><path d="m494.282 85.969-9.031.356-21.088 27.296c-4.669 6.043-10.605 10.989-17.392 14.489l-166.912 86.092c-29.487 15.209-60.673 26.867-92.905 34.729l-24.936 6.083-6.806 5.887c-7.003 6.057-1.134 17.435 7.861 15.241l38.614-9.419c32.233-7.863 63.419-19.521 92.905-34.729l166.912-86.092c6.787-3.501 12.724-8.446 17.392-14.489l23.281-30.134c4.935-6.387.168-15.628-7.895-15.31z" fill="#dfeaef"/></g><g><path d="m465.548 423.553h-418.772c-21.515 0-38.956 17.441-38.956 38.956 0 3.864 3.132 6.997 6.997 6.997h482.691c3.864 0 6.997-3.132 6.997-6.997-.001-21.515-17.442-38.956-38.957-38.956z" fill="#ffe07d"/></g><path d="m467.333 423.598c2.191 4.872 3.42 10.269 3.42 15.958 0 3.864-3.133 6.997-6.997 6.997h-452.516c-2.191 4.871-3.42 10.269-3.42 15.957 0 3.864 3.132 6.997 6.997 6.997h482.691c3.864 0 6.997-3.133 6.997-6.997-.001-20.917-16.486-37.978-37.172-38.912z" fill="#ffd064"/><g><path d="m141.702 277.517 9.162 57.412c.541 3.389 2.692 6.338 5.755 7.887 3.064 1.551 6.715 1.536 9.768-.038l23.256-11.996c4.119-2.123 7.061-5.936 8.03-10.276l10.662-47.727c28.497-7.308 56.233-17.572 82.627-30.57l24.79 151.378c.552 3.38 2.71 6.316 5.769 7.855 3.058 1.539 6.703 1.521 9.747-.048l27.785-14.332c4.361-2.251 7.562-6.267 8.781-11.021l51.257-199.829 45.849-23.649c7.709-3.977 14.587-9.705 19.89-16.569l23.28-30.134c4.083-5.284 4.717-12.253 1.657-18.187-3.06-5.935-9.091-9.441-15.78-9.196l-38.05 1.5c-8.668.342-17.324 2.624-25.031 6.599l-45.85 23.649-127.363-49.003c-3.866-1.489-8.202.441-9.689 4.305s.44 8.202 4.305 9.689l114.909 44.213-96.268 49.654-108.209-107.2 22.58-11.646c.562-.291 1.223-.325 1.813-.099l34.509 13.279c3.864 1.486 8.202-.44 9.689-4.305s-.44-8.201-4.305-9.689l-34.509-13.279c-4.582-1.763-9.711-1.482-14.071.767l-27.783 14.331c-6.369 3.073-7.788 12.326-2.635 17.167l108.974 107.959c-25.889 13.969-50.331 30.618-72.809 49.602l-44.899-18.909c-4.268-1.797-9.081-1.612-13.201.512l-23.256 11.996c-6.385 3.08-7.791 12.366-2.604 17.199zm41.381 39.537c-.039.174-.152.32-.311.403l-18.029 9.299-6.882-43.124c.968.18 1.959.281 2.966.28 1.324 0 2.673-.159 4.023-.489l27.23-6.642zm254.697-217.152c5.773-2.978 12.256-4.687 18.748-4.943l38.05-1.5c1.056-.037 1.597.568 1.864 1.086s.451 1.312-.196 2.149l-23.281 30.135c-3.971 5.14-9.122 9.431-14.897 12.41l-120.773 62.294c-3.679 1.898-5.123 6.42-3.226 10.1 1.899 3.679 6.423 5.122 10.1 3.226l57.085-29.445-47.942 186.903c-.157.613-.571 1.131-1.133 1.421l-22.579 11.646-24.616-150.316 9.678-4.992c3.679-1.898 5.123-6.42 3.226-10.1-1.897-3.678-6.419-5.122-10.1-3.226l-16.632 8.58c-28.926 14.92-59.626 26.396-91.245 34.109l-38.615 9.419c-.355.086-1.015.245-1.491-.679-.477-.927.035-1.37.31-1.609l30.061-26.003c24.619-21.295 51.767-39.656 80.691-54.574zm-304.812 120.997c.158-.082.345-.089.508-.02l38.031 16.017-21.199 18.336c-1.852 1.602-3.265 3.504-4.223 5.571l-31.145-30.605z"/><path d="m31.641 331.834c1.331 2.581 3.952 4.062 6.669 4.062 1.157 0 2.332-.269 3.43-.836l49.066-25.307c3.68-1.898 5.124-6.42 3.227-10.099-1.898-3.68-6.421-5.122-10.099-3.227l-49.066 25.307c-3.679 1.9-5.124 6.421-3.227 10.1z"/><path d="m83.933 330.994-49.066 25.308c-3.679 1.898-5.123 6.42-3.226 10.1 1.331 2.58 3.952 4.061 6.669 4.061 1.157 0 2.332-.269 3.431-.836l49.066-25.308c3.679-1.898 5.123-6.42 3.226-10.1-1.899-3.677-6.42-5.12-10.1-3.225z"/><path d="m7.504 317.275c1.157 0 2.332-.269 3.431-.836l49.065-25.307c3.679-1.898 5.123-6.42 3.226-10.1-1.898-3.678-6.419-5.121-10.1-3.226l-49.065 25.308c-3.679 1.898-5.123 6.42-3.226 10.1 1.332 2.579 3.952 4.061 6.669 4.061z"/><path d="m465.547 416.056h-418.77c-25.614 0-46.453 20.838-46.453 46.453 0 7.991 6.502 14.493 14.493 14.493h111.565c4.141 0 7.496-3.356 7.496-7.496 0-4.141-3.356-7.496-7.496-7.496h-111.062c.268-17.118 14.276-30.96 31.456-30.96h418.771c17.18 0 31.188 13.843 31.456 30.96h-332.733c-4.141 0-7.496 3.356-7.496 7.496 0 4.141 3.356 7.496 7.496 7.496h333.237c7.991 0 14.493-6.502 14.493-14.493 0-25.614-20.838-46.453-46.453-46.453z"/></g></g></svg>